<?xml version="1.0" standalone="no"?>
<!DOCTYPE svg PUBLIC "-//W3C//DTD SVG 1.1//EN" "http://www.w3.org/Graphics/SVG/1.1/DTD/svg11.dtd">
<svg width="100%" height="100%" viewBox="0 0 8 8" version="1.1" xmlns="http://www.w3.org/2000/svg" xmlns:xlink="http://www.w3.org/1999/xlink" xml:space="preserve" style="fill-rule:evenodd;clip-rule:evenodd;stroke-linecap:round;stroke-linejoin:round;stroke-miterlimit:1.41421;">
    <rect x="1" y="1" width="6" height="6" style="fill:rgb(204,14,14);stroke-width:0.25px;stroke:black;"/>
    <rect x="1" y="1" width="6" height="2" style="fill:rgb(204,14,14);stroke-width:0.25px;stroke:black;"/>
    <rect x="1" y="1" width="3" height="2" style="fill:rgb(204,14,14);stroke-width:0.25px;stroke:black;"/>
    <path d="M1,2L7,7L1,7L1,2Z" style="fill:rgb(204,14,14);stroke-width:0.25px;stroke:black;"/>
    <path d="M1,1L6,2L7,7L2,6L1,1Z" style="fill:rgb(204,14,14);stroke-width:0.25px;stroke:black;"/>
    <path d="M2,2L4,1L6,2L7,4L6,6L4,7L2,6L1,4L2,2Z" style="fill:rgb(204,14,14);stroke-width:0.25px;stroke:black;"/>
    <path d="M2,2L4,1L6,2L7,4L4,7L1,4L2,2Z" style="fill:rgb(204,14,14);stroke-width:0.25px;stroke:black;"/>
    <path d="M4,7L7,4L4,1L1,4L4,7Z" style="fill:rgb(204,14,14);stroke-width:0.25px;stroke:black;"/>
    <path d="M2,2L4,1L6,2L7,4L4,4L1,4L2,2Z" style="fill:rgb(204,14,14);stroke-width:0.25px;stroke:black;"/>
    <path d="M4,5L7,3L7,1L1,1L1,3L4,5Z" style="fill:rgb(204,14,14);stroke-width:0.25px;stroke:black;"/>
    <path d="M4,6L7,6L7,1L1,1L4,6Z" style="fill:rgb(204,14,14);stroke-width:0.25px;stroke:black;"/>
    <path d="M2,2L4,1L6,2L7,3L4,7L1,3L2,2Z" style="fill:rgb(204,14,14);stroke-width:0.25px;stroke:black;"/>
    <path d="M3,1L4,1L7,3L7,4L5,7L4,7L1,5L1,4L3,1Z" style="fill:rgb(204,14,14);stroke-width:0.25px;stroke:black;"/>
</svg>
